<?xml version="1.0" encoding="UTF-8" standalone="no"?>

<svg xmlns="http://www.w3.org/2000/svg" version="1.1" viewBox="0.00 0.00 1024.00 1024.00">
<g stroke-width="2.00" fill="none" stroke-linecap="butt">
<path stroke="#28180f" vector-effect="non-scaling-stroke" d="&#xA;  M 435.77 690.89&#xA;  Q 438.30 691.10 438.03 694.25&#xA;  Q 436.95 706.98 435.54 731.56&#xA;  Q 433.30 770.53 432.51 781.27&#xA;  C 431.92 789.38 432.02 797.11 431.54 804.82&#xA;  Q 428.76 849.01 427.18 876.99&#xA;  Q 426.83 883.09 426.49 886.52&#xA;  Q 425.76 893.85 425.95 896.03&#xA;  Q 427.02 908.96 439.77 908.96&#xA;  Q 562.64 908.93 580.75 909.03&#xA;  Q 589.94 909.09 594.27 901.30&#xA;  Q 595.30 899.45 595.12 897.01&#xA;  C 594.83 893.03 595.07 888.56 594.42 884.38&#xA;  C 593.81 880.46 594.16 876.30 593.77 872.05&#xA;  C 593.35 867.37 592.94 864.20 592.95 859.80&#xA;  Q 592.97 854.50 592.59 851.41&#xA;  C 591.83 845.32 592.18 839.80 591.54 833.46&#xA;  C 591.01 828.14 591.49 823.07 590.83 818.58&#xA;  Q 590.14 813.93 589.97 807.42&#xA;  Q 589.77 799.52 589.44 796.97&#xA;  C 588.88 792.71 589.32 787.75 588.79 784.06&#xA;  C 587.84 777.33 588.20 769.61 587.54 763.45&#xA;  C 586.81 756.63 587.29 749.75 585.97 743.43&#xA;  A 1.28 1.17 42.4 0 1 585.95 743.21&#xA;  L 583.82 696.76&#xA;  A 1.85 1.85 0.0 0 1 584.95 694.97&#xA;  Q 604.06 687.02 619.84 673.35&#xA;  Q 621.20 672.17 623.44 672.61&#xA;  A 1.50 1.47 -14.3 0 1 624.27 673.09&#xA;  Q 628.97 678.35 634.77 682.74&#xA;  Q 657.04 699.56 682.19 703.96&#xA;  Q 687.18 704.84 690.09 705.33&#xA;  Q 693.08 705.84 698.00 706.08&#xA;  Q 701.28 706.24 707.73 706.81&#xA;  Q 710.89 707.09 726.31 705.90&#xA;  Q 726.52 705.89 730.80 705.20&#xA;  C 734.45 704.61 738.31 704.41 742.03 703.38&#xA;  Q 753.85 700.12 765.79 694.74&#xA;  C 770.80 692.49 775.30 689.49 781.23 685.97&#xA;  Q 785.03 683.72 796.67 673.86&#xA;  C 800.26 670.81 802.27 668.03 805.38 664.80&#xA;  Q 808.33 661.74 811.44 657.56&#xA;  C 822.40 642.83 830.82 625.53 834.36 607.46&#xA;  C 836.11 598.55 837.18 593.34 837.17 587.01&#xA;  Q 837.17 585.14 838.31 583.78&#xA;  A 2.06 1.99 -81.3 0 1 839.03 583.23&#xA;  Q 847.99 579.25 856.58 573.32&#xA;  C 859.89 571.04 865.50 567.12 869.30 563.67&#xA;  Q 898.61 537.03 912.13 501.90&#xA;  Q 916.93 489.45 920.61 470.43&#xA;  C 921.15 467.63 920.96 464.48 921.54 461.73&#xA;  C 922.36 457.85 921.87 452.37 922.24 447.89&#xA;  Q 922.66 442.78 922.25 440.59&#xA;  Q 921.78 438.09 921.89 433.20&#xA;  Q 921.95 430.88 921.33 425.82&#xA;  Q 919.63 411.88 916.88 403.11&#xA;  C 914.68 396.12 912.69 389.04 909.64 382.37&#xA;  Q 905.56 373.45 902.61 368.11&#xA;  Q 889.58 344.59 869.15 326.60&#xA;  Q 854.41 313.61 837.66 305.39&#xA;  Q 824.90 299.12 814.84 296.24&#xA;  Q 812.05 295.44 808.99 295.30&#xA;  Q 806.85 295.20 806.91 293.00&#xA;  Q 807.20 282.16 807.18 276.34&#xA;  Q 807.15 267.23 805.97 259.74&#xA;  Q 803.16 242.00 796.79 227.92&#xA;  Q 795.45 224.95 793.06 220.04&#xA;  Q 790.78 215.34 788.90 212.44&#xA;  Q 779.09 197.27 771.07 188.51&#xA;  Q 758.53 174.81 740.34 163.43&#xA;  Q 717.42 149.11 690.46 143.69&#xA;  Q 681.10 141.81 669.92 141.68&#xA;  Q 656.57 141.52 649.26 142.20&#xA;  Q 633.24 143.68 614.44 151.63&#xA;  Q 612.52 152.45 609.81 151.17&#xA;  A 1.45 1.39 88.8 0 1 609.15 150.51&#xA;  C 606.13 144.25 602.58 139.67 598.21 133.79&#xA;  Q 595.42 130.04 591.49 125.93&#xA;  Q 582.94 117.00 581.97 116.10&#xA;  Q 548.63 84.95 504.75 76.49&#xA;  Q 496.17 74.83 484.21 74.61&#xA;  Q 470.77 74.36 463.52 75.14&#xA;  Q 439.63 77.70 415.58 88.16&#xA;  Q 405.24 92.66 396.54 97.84&#xA;  Q 383.04 105.89 371.14 116.38&#xA;  C 351.69 133.53 335.66 157.16 329.90 182.52&#xA;  A 1.37 1.37 0.0 0 1 328.98 183.53&#xA;  Q 326.66 184.29 325.51 184.10&#xA;  Q 312.20 181.96 295.43 182.86&#xA;  Q 289.32 183.18 284.94 184.32&#xA;  C 283.20 184.77 280.72 184.86 279.28 185.15&#xA;  Q 237.52 193.53 208.60 224.34&#xA;  Q 203.97 229.28 203.59 229.66&#xA;  Q 201.33 231.98 198.93 235.30&#xA;  Q 190.66 246.74 186.56 254.79&#xA;  C 181.59 264.59 177.51 275.00 175.27 286.67&#xA;  Q 173.47 296.07 172.96 300.26&#xA;  Q 169.88 325.37 175.89 350.23&#xA;  Q 177.03 354.98 177.37 356.94&#xA;  A 1.66 1.64 -35.3 0 1 177.17 358.07&#xA;  C 176.28 359.61 174.34 359.67 172.66 360.42&#xA;  Q 155.00 368.26 141.52 381.66&#xA;  C 140.27 382.91 138.52 384.09 137.56 385.05&#xA;  Q 114.52 408.35 105.07 438.58&#xA;  C 98.06 461.01 97.10 486.14 100.90 509.48&#xA;  Q 109.76 563.84 152.84 598.57&#xA;  Q 162.41 606.29 172.82 611.45&#xA;  C 183.02 616.51 194.59 621.02 206.26 623.18&#xA;  Q 222.79 626.24 240.10 625.62&#xA;  A 1.49 1.48 82.9 0 1 241.61 626.80&#xA;  C 246.17 648.65 257.56 668.30 274.48 683.08&#xA;  Q 282.60 690.16 289.54 694.26&#xA;  Q 301.15 701.10 305.25 702.77&#xA;  Q 314.34 706.47 323.52 709.04&#xA;  Q 332.52 711.55 341.33 712.37&#xA;  Q 352.94 713.46 359.48 713.28&#xA;  Q 361.81 713.21 364.99 713.18&#xA;  Q 394.43 712.85 420.75 698.96&#xA;  Q 429.98 694.10 435.03 691.06&#xA;  A 1.29 1.25 31.2 0 1 435.77 690.89"></path>
<path stroke="#9a5224" vector-effect="non-scaling-stroke" d="&#xA;  M 504.97 545.05&#xA;  Q 505.45 545.09 505.67 545.02"></path>
<path stroke="#28180f" vector-effect="non-scaling-stroke" d="&#xA;  M 505.67 545.02&#xA;  Q 506.08 545.19 506.27 545.16&#xA;  Q 506.66 545.11 506.66 544.44&#xA;  Q 506.65 539.34 506.75 534.25&#xA;  Q 506.97 523.18 506.89 449.25&#xA;  Q 506.89 441.95 513.00 437.97&#xA;  Q 518.13 434.63 523.97 436.60&#xA;  Q 533.07 439.66 533.25 449.76&#xA;  Q 533.25 449.88 533.44 499.89&#xA;  A 1.63 1.63 0.0 0 0 536.20 501.07&#xA;  Q 572.30 466.79 577.02 462.14&#xA;  C 583.28 455.97 590.71 449.69 597.28 442.88&#xA;  C 601.65 438.34 605.81 435.32 611.76 436.23&#xA;  Q 615.21 436.76 617.71 438.95&#xA;  C 624.28 444.67 625.10 454.37 618.76 460.51&#xA;  C 610.02 468.98 599.75 477.94 591.20 486.30&#xA;  Q 578.11 499.10 557.32 518.53&#xA;  C 549.56 525.77 542.40 533.52 534.95 540.17&#xA;  A 5.00 4.99 69.3 0 0 533.27 543.91&#xA;  L 533.27 677.11&#xA;  A 1.80 1.79 88.9 0 0 535.13 678.91&#xA;  Q 572.83 677.58 601.68 654.62&#xA;  C 606.69 650.63 610.92 646.02 615.42 641.66&#xA;  Q 616.80 640.31 621.28 638.89&#xA;  A 2.26 2.25 39.6 0 1 622.24 638.80&#xA;  Q 629.33 639.54 633.70 645.05&#xA;  C 640.36 653.46 648.01 661.20 656.85 666.75&#xA;  Q 679.91 681.23 707.98 681.87&#xA;  Q 712.44 681.97 715.05 681.61&#xA;  C 720.99 680.79 726.81 680.73 732.55 679.39&#xA;  Q 766.53 671.46 788.88 644.93&#xA;  C 803.43 627.66 811.69 605.90 810.88 583.25&#xA;  C 810.65 576.73 810.33 571.68 814.83 567.05&#xA;  Q 816.54 565.29 824.03 562.12&#xA;  Q 834.68 557.61 845.48 549.24&#xA;  Q 887.44 516.72 895.21 464.86&#xA;  C 895.95 459.95 896.25 454.27 896.42 448.28&#xA;  C 897.31 416.05 886.29 384.19 865.05 359.76&#xA;  Q 841.76 332.97 808.43 322.12&#xA;  Q 802.44 320.17 796.16 319.06&#xA;  Q 787.98 317.60 785.92 316.38&#xA;  Q 780.38 313.09 779.55 306.12&#xA;  Q 779.22 303.27 780.77 296.47&#xA;  Q 782.85 287.38 782.41 276.99&#xA;  Q 781.23 248.89 765.95 224.34&#xA;  Q 751.15 200.55 727.22 185.59&#xA;  C 704.30 171.26 677.34 164.32 650.45 168.39&#xA;  Q 646.95 168.92 642.67 170.09&#xA;  C 632.68 172.82 623.48 175.97 614.72 181.30&#xA;  C 608.84 184.88 601.56 186.35 596.22 181.64&#xA;  Q 594.23 179.88 591.90 174.18&#xA;  C 579.55 144.01 555.01 122.01 524.77 109.43&#xA;  Q 503.58 100.61 480.17 100.04&#xA;  Q 457.67 99.48 435.70 107.59&#xA;  C 411.39 116.57 389.28 132.31 373.47 153.22&#xA;  Q 357.66 174.13 353.39 199.59&#xA;  Q 352.41 205.47 351.31 207.11&#xA;  C 348.53 211.24 342.94 213.64 338.07 212.68&#xA;  Q 327.11 210.54 322.52 209.77&#xA;  Q 309.38 207.56 296.43 208.62&#xA;  Q 290.66 209.09 284.19 210.53&#xA;  Q 275.86 212.39 272.11 213.69&#xA;  Q 230.01 228.27 209.30 266.91&#xA;  C 203.33 278.05 199.38 290.70 198.48 303.23&#xA;  Q 197.41 317.98 198.37 326.75&#xA;  Q 199.81 339.84 202.44 347.57&#xA;  Q 204.29 353.00 207.12 361.39&#xA;  Q 209.06 367.15 205.76 372.00&#xA;  Q 202.24 377.15 197.67 378.68&#xA;  Q 181.15 384.19 168.15 394.17&#xA;  Q 154.58 404.60 145.65 416.88&#xA;  Q 123.73 447.04 124.38 487.00&#xA;  Q 124.56 498.12 126.68 509.26&#xA;  Q 132.69 540.76 152.75 563.63&#xA;  Q 167.46 580.38 186.70 589.62&#xA;  Q 206.59 599.16 228.25 599.68&#xA;  Q 237.09 599.90 249.74 599.94&#xA;  Q 253.69 599.96 257.55 601.71&#xA;  C 264.57 604.89 264.45 611.59 265.62 619.60&#xA;  C 267.68 633.73 276.11 648.29 285.68 658.36&#xA;  C 313.19 687.30 357.36 696.10 394.42 683.08&#xA;  Q 410.45 677.44 423.72 666.71&#xA;  Q 431.18 660.68 431.79 660.11&#xA;  C 439.49 652.97 447.98 659.61 455.55 664.19&#xA;  Q 462.73 668.54 471.98 671.78&#xA;  Q 488.18 677.46 504.06 678.87&#xA;  Q 506.93 679.13 506.93 675.64&#xA;  Q 506.96 628.09 506.88 586.62&#xA;  A 1.38 1.28 -59.9 0 0 506.75 586.04&#xA;  Q 506.03 584.55 504.29 582.86&#xA;  Q 481.87 561.11 468.19 547.88&#xA;  Q 465.28 545.07 464.89 544.68&#xA;  Q 419.87 499.63 400.75 480.95&#xA;  C 393.37 473.74 386.34 466.26 379.35 459.44&#xA;  A 4.95 4.80 6.3 0 1 378.68 458.63&#xA;  C 374.02 451.48 375.62 441.74 383.47 437.46&#xA;  Q 388.46 434.74 393.86 436.70&#xA;  Q 396.40 437.62 402.11 443.48&#xA;  Q 436.45 478.71 452.45 494.47&#xA;  Q 468.74 510.52 486.77 528.65&#xA;  Q 488.76 530.66 504.33 545.52&#xA;  A 0.42 0.42 0.0 0 0 505.02 545.34&#xA;  Q 505.04 545.26 504.97 545.05"></path>
<path stroke="#763c16" vector-effect="non-scaling-stroke" d="&#xA;  M 505.67 545.02&#xA;  L 505.62 500.33"></path>
<path stroke="#722f15" vector-effect="non-scaling-stroke" d="&#xA;  M 505.62 500.33&#xA;  Q 505.68 477.23 505.66 454.26&#xA;  C 505.66 450.56 505.50 446.33 506.83 443.37&#xA;  Q 510.79 434.54 521.37 434.68"></path>
<path stroke="#7d561c" vector-effect="non-scaling-stroke" d="&#xA;  M 521.37 434.68&#xA;  Q 534.74 437.44 534.74 451.01&#xA;  Q 534.75 471.49 534.63 500.64&#xA;  A 0.23 0.22 68.6 0 0 535.01 500.81&#xA;  Q 561.68 475.21 599.89 438.90&#xA;  C 606.60 432.52 617.12 433.78 621.91 441.86&#xA;  Q 626.37 449.41 622.56 457.29&#xA;  C 621.48 459.53 618.45 462.16 616.24 464.24&#xA;  Q 582.09 496.45 535.54 541.00&#xA;  A 2.54 2.51 -22.0 0 0 534.75 542.83&#xA;  L 534.75 677.38&#xA;  A 0.33 0.33 0.0 0 0 535.10 677.71&#xA;  C 565.88 676.34 592.69 664.58 613.54 641.84&#xA;  C 619.70 635.11 629.63 637.43 634.58 644.21&#xA;  C 658.60 677.14 702.59 687.47 740.21 675.93&#xA;  Q 771.82 666.24 791.94 639.23&#xA;  Q 806.75 619.34 809.54 593.24&#xA;  Q 809.77 591.11 809.66 579.90&#xA;  C 809.61 573.90 810.17 570.63 813.88 566.29&#xA;  Q 815.44 564.46 822.24 561.65&#xA;  Q 836.50 555.77 850.61 543.61&#xA;  Q 869.07 527.72 879.64 508.31&#xA;  C 899.05 472.70 900.23 427.35 883.40 390.39&#xA;  C 868.13 356.86 838.30 331.00 802.32 321.73&#xA;  Q 796.13 320.13 793.08 319.62&#xA;  Q 787.18 318.64 784.43 316.72&#xA;  C 778.67 312.70 777.22 306.89 778.62 300.17&#xA;  C 779.54 295.71 780.57 292.09 780.86 287.35&#xA;  Q 781.79 272.31 778.67 258.52&#xA;  Q 772.88 232.95 755.82 212.19&#xA;  C 721.83 170.84 661.38 154.22 613.41 183.40&#xA;  Q 608.48 186.40 602.75 185.91"></path>
<path stroke="#763c16" vector-effect="non-scaling-stroke" d="&#xA;  M 602.75 185.91&#xA;  C 593.80 184.08 592.12 177.56 588.89 170.11&#xA;  C 575.87 140.09 546.78 117.67 516.28 107.49&#xA;  C 479.89 95.35 442.36 101.34 410.11 121.33&#xA;  Q 393.33 131.73 380.11 146.60&#xA;  Q 360.50 168.66 355.06 196.94&#xA;  Q 353.33 205.88 352.31 207.43&#xA;  C 348.68 212.93 342.01 214.88 335.48 213.35&#xA;  C 318.80 209.45 301.84 208.01 285.20 211.45&#xA;  C 257.02 217.28 232.91 232.86 216.59 256.61&#xA;  Q 200.53 279.99 199.08 308.27&#xA;  Q 198.14 326.54 201.96 341.67&#xA;  Q 204.08 350.09 208.25 361.05&#xA;  C 210.88 367.97 205.58 376.42 199.18 379.23&#xA;  C 193.70 381.63 187.87 383.33 181.96 386.51&#xA;  C 154.16 401.49 134.46 427.92 128.06 459.03&#xA;  C 119.13 502.47 132.77 549.02 168.17 576.83&#xA;  Q 192.49 595.93 224.01 598.42"></path>
<path stroke="#722f15" vector-effect="non-scaling-stroke" d="&#xA;  M 224.01 598.42&#xA;  Q 230.41 598.73 251.00 598.91&#xA;  Q 260.14 598.98 264.61 607.36&#xA;  A 3.93 3.71 27.0 0 1 265.00 608.45&#xA;  Q 265.37 610.42 266.42 617.66&#xA;  C 270.48 645.67 291.57 667.95 316.88 678.82&#xA;  Q 350.22 693.12 385.53 684.65"></path>
<path stroke="#763c16" vector-effect="non-scaling-stroke" d="&#xA;  M 385.53 684.65&#xA;  Q 405.68 679.43 422.03 666.76&#xA;  Q 425.71 663.91 431.29 659.29&#xA;  Q 434.33 656.78 435.96 656.38&#xA;  C 443.61 654.53 449.30 659.01 455.82 662.98&#xA;  Q 460.16 665.62 463.88 667.25&#xA;  Q 483.83 676.01 505.32 677.66&#xA;  A 0.30 0.30 0.0 0 0 505.64 677.36&#xA;  L 505.66 592.94"></path>
<path stroke="#722f15" vector-effect="non-scaling-stroke" d="&#xA;  M 505.66 592.94&#xA;  L 505.56 587.33&#xA;  A 3.68 3.67 -68.4 0 0 504.46 584.78&#xA;  Q 434.24 515.72 399.56 481.19&#xA;  Q 381.58 463.29 378.77 460.21&#xA;  Q 374.51 455.54 375.14 448.76&#xA;  C 376.05 438.95 385.43 432.10 394.46 435.78&#xA;  Q 397.83 437.15 403.82 443.72&#xA;  Q 407.70 447.98 412.30 452.70&#xA;  Q 425.47 466.20 477.84 518.19"></path>
<path stroke="#763c16" vector-effect="non-scaling-stroke" d="&#xA;  M 477.84 518.19&#xA;  L 504.97 545.05"></path>
<path stroke="#e5682a" vector-effect="non-scaling-stroke" d="&#xA;  M 505.62 500.33&#xA;  L 504.95 499.86&#xA;  A 0.55 0.55 0.0 0 0 504.12 500.13&#xA;  C 503.56 501.72 501.87 502.00 500.62 502.94&#xA;  Q 489.50 511.35 477.84 518.19"></path>
<path stroke="#e5682a" vector-effect="non-scaling-stroke" d="&#xA;  M 505.66 592.94&#xA;  Q 505.57 594.57 505.05 595.48&#xA;  A 0.25 0.25 0.0 0 1 504.58 595.36&#xA;  L 504.31 587.72&#xA;  A 3.15 2.95 -57.2 0 0 504.13 586.74&#xA;  Q 503.59 585.68 500.07 582.22&#xA;  Q 478.20 560.77 467.22 549.72&#xA;  A 0.93 0.93 0.0 0 0 465.63 550.43&#xA;  Q 467.70 587.17 453.79 620.51&#xA;  Q 448.35 633.57 436.96 653.43&#xA;  Q 436.82 653.68 436.80 653.92&#xA;  A 0.90 0.89 79.7 0 1 436.31 654.63&#xA;  C 430.70 657.37 425.31 663.07 422.19 665.45&#xA;  Q 405.02 678.54 384.21 683.78&#xA;  A 0.30 0.29 -12.5 0 0 383.99 684.12&#xA;  Q 384.09 684.75 385.53 684.65"></path>
<path stroke="#f08f31" vector-effect="non-scaling-stroke" d="&#xA;  M 602.75 185.91&#xA;  Q 602.07 185.89 602.00 186.38&#xA;  A 0.37 0.37 0.0 0 0 602.26 186.79&#xA;  Q 602.64 186.89 602.76 187.02&#xA;  A 1.31 1.30 22.9 0 1 603.13 187.93&#xA;  Q 603.13 190.20 602.93 191.99&#xA;  Q 598.39 232.89 573.66 265.67&#xA;  Q 559.22 284.83 542.18 297.70&#xA;  Q 527.59 308.71 507.22 318.17"></path>
<path stroke="#e5682a" vector-effect="non-scaling-stroke" d="&#xA;  M 507.22 318.17&#xA;  C 488.31 299.15 465.30 287.57 438.45 284.59&#xA;  C 421.49 282.70 404.72 285.72 388.20 291.01&#xA;  A 3.39 3.35 49.9 0 1 385.57 290.77&#xA;  C 373.81 284.48 364.72 271.60 359.12 259.66&#xA;  C 352.62 245.80 349.47 228.79 348.72 213.80&#xA;  A 0.52 0.52 0.0 0 0 348.00 213.35&#xA;  C 343.62 215.24 340.00 215.56 335.08 214.49&#xA;  Q 322.49 211.74 309.30 211.01&#xA;  C 276.30 209.16 243.85 224.72 223.45 249.81&#xA;  C 207.10 269.90 199.07 294.32 200.42 319.83&#xA;  Q 201.10 332.83 203.54 342.14&#xA;  Q 205.16 348.33 208.70 358.49&#xA;  Q 211.79 367.36 206.47 374.40&#xA;  Q 203.54 378.27 199.59 380.08&#xA;  C 195.12 382.13 189.12 383.99 184.30 386.58&#xA;  Q 140.14 410.33 129.31 459.93&#xA;  C 128.33 464.44 128.20 468.38 127.54 472.41&#xA;  Q 126.80 476.93 126.71 481.81&#xA;  Q 126.29 502.87 132.97 523.75&#xA;  C 145.44 562.76 177.94 591.18 218.89 596.68&#xA;  Q 221.99 597.09 224.01 598.42"></path>
<path stroke="#ec8230" vector-effect="non-scaling-stroke" d="&#xA;  M 521.37 434.68&#xA;  Q 527.00 420.55 529.69 407.74&#xA;  C 535.88 378.22 529.95 349.18 512.14 325.00&#xA;  Q 509.49 321.40 507.22 318.17"></path>
<path stroke="#28180f" vector-effect="non-scaling-stroke" d="&#xA;  M 462.46 698.60&#xA;  Q 461.56 702.30 461.38 708.22&#xA;  Q 460.46 738.02 458.30 778.24&#xA;  C 457.98 784.25 458.17 789.34 457.76 794.27&#xA;  Q 457.20 800.91 457.03 806.24&#xA;  Q 456.38 826.55 455.49 846.76&#xA;  Q 454.56 867.97 454.21 874.48&#xA;  Q 453.97 879.14 454.58 881.98&#xA;  A 0.90 0.89 84.0 0 0 455.45 882.69&#xA;  L 566.63 882.69&#xA;  A 2.11 2.11 0.0 0 0 568.70 880.98&#xA;  Q 569.01 879.39 568.85 877.50&#xA;  C 568.12 868.77 567.46 849.60 566.08 825.93&#xA;  Q 565.45 815.00 561.16 726.60&#xA;  C 560.81 719.37 561.06 711.83 559.92 704.54&#xA;  A 2.01 2.00 -9.2 0 0 557.60 702.88&#xA;  Q 529.51 707.72 501.36 704.44&#xA;  Q 493.07 703.48 482.61 701.73&#xA;  Q 472.95 700.11 464.14 697.62&#xA;  A 1.35 1.35 0.0 0 0 462.46 698.60"></path>
<path stroke="#e5682a" vector-effect="non-scaling-stroke" d="&#xA;  M 479.9681 176.2448&#xA;  A 18.07 17.82 -147.1 0 0 485.4606 201.0220&#xA;  A 18.07 17.82 -147.1 0 0 510.3119 195.8752&#xA;  A 18.07 17.82 -147.1 0 0 504.8194 171.0980&#xA;  A 18.07 17.82 -147.1 0 0 479.9681 176.2448"></path>
<path stroke="#f39e2f" vector-effect="non-scaling-stroke" d="&#xA;  M 673.9962 252.7556&#xA;  A 21.15 20.70 -127.7 0 0 670.5517 282.1486&#xA;  A 21.15 20.70 -127.7 0 0 699.8638 286.2244&#xA;  A 21.15 20.70 -127.7 0 0 703.3083 256.8314&#xA;  A 21.15 20.70 -127.7 0 0 673.9962 252.7556"></path>
<path stroke="#f39e2f" vector-effect="non-scaling-stroke" d="&#xA;  M 613.68 639.92&#xA;  Q 615.78 637.86 619.51 636.80&#xA;  C 625.11 635.21 631.93 638.75 635.22 642.97&#xA;  Q 642.25 651.98 645.70 654.88&#xA;  C 649.46 658.04 653.03 661.47 657.62 664.39&#xA;  Q 677.13 676.75 700.68 678.80&#xA;  Q 736.26 681.90 766.03 662.31&#xA;  C 788.48 647.55 804.25 623.66 807.91 596.03&#xA;  Q 808.74 589.77 808.56 579.87&#xA;  Q 808.44 573.26 809.71 570.40&#xA;  Q 811.80 565.70 815.90 563.03&#xA;  A 4.65 4.44 16.5 0 1 816.66 562.64&#xA;  Q 829.37 557.50 837.44 552.13&#xA;  Q 847.02 545.74 855.81 537.28&#xA;  Q 864.73 528.70 871.23 519.39&#xA;  Q 887.32 496.38 892.01 468.33&#xA;  Q 893.01 462.35 893.13 460.23&#xA;  C 893.46 454.41 894.68 447.01 894.16 442.02&#xA;  Q 893.80 438.56 893.09 431.28&#xA;  Q 889.92 399.10 871.74 372.27&#xA;  Q 869.38 368.79 865.66 364.34&#xA;  C 862.45 360.52 858.28 355.38 853.51 350.98&#xA;  Q 848.55 346.40 842.07 341.70&#xA;  Q 822.70 327.65 799.73 322.19&#xA;  Q 793.92 320.80 790.78 320.93&#xA;  A 0.69 0.69 0.0 0 0 790.13 321.48&#xA;  Q 789.83 322.98 789.48 323.47&#xA;  C 769.58 351.34 747.03 375.43 721.56 394.02&#xA;  A 1.16 1.16 0.0 0 0 721.36 395.70&#xA;  Q 736.19 413.46 739.55 438.12&#xA;  C 740.76 446.98 740.88 455.00 738.21 463.30&#xA;  Q 731.34 484.70 713.62 499.41&#xA;  Q 699.71 510.97 684.93 517.16&#xA;  Q 658.18 528.37 628.76 526.37&#xA;  A 0.79 0.79 0.0 0 0 627.92 527.19&#xA;  C 628.53 542.02 629.17 550.15 628.58 560.62&#xA;  Q 627.00 588.29 619.25 616.53&#xA;  Q 616.57 626.31 612.49 639.18&#xA;  A 0.72 0.72 0.0 0 0 613.68 639.92"></path>
<path stroke="#a26c2a" vector-effect="non-scaling-stroke" d="&#xA;  M 621.0336 356.3422&#xA;  A 17.49 17.15 -102.0 0 0 607.8948 377.0157&#xA;  A 17.49 17.15 -102.0 0 0 628.3064 390.5578&#xA;  A 17.49 17.15 -102.0 0 0 641.4452 369.8843&#xA;  A 17.49 17.15 -102.0 0 0 621.0336 356.3422"></path>
<path stroke="#e5682a" vector-effect="non-scaling-stroke" d="&#xA;  M 314.2392 306.4697&#xA;  A 21.55 20.93 -82.0 0 0 290.5137 324.8971&#xA;  A 21.55 20.93 -82.0 0 0 308.2408 349.1503&#xA;  A 21.55 20.93 -82.0 0 0 331.9663 330.7229&#xA;  A 21.55 20.93 -82.0 0 0 314.2392 306.4697"></path>
<path stroke="#e5682a" vector-effect="non-scaling-stroke" d="&#xA;  M 216.7142 469.4692&#xA;  A 21.87 21.49 -92.4 0 0 196.1589 492.2199&#xA;  A 21.87 21.49 -92.4 0 0 218.5458 513.1708&#xA;  A 21.87 21.49 -92.4 0 0 239.1011 490.4201&#xA;  A 21.87 21.49 -92.4 0 0 216.7142 469.4692"></path>
<path stroke="#e5682a" vector-effect="non-scaling-stroke" d="&#xA;  M 391.0639 571.3280&#xA;  A 19.53 18.95 -56.8 0 0 364.5133 577.2937&#xA;  A 19.53 18.95 -56.8 0 0 369.6761 604.0120&#xA;  A 19.53 18.95 -56.8 0 0 396.2267 598.0463&#xA;  A 19.53 18.95 -56.8 0 0 391.0639 571.3280"></path>
<path stroke="#f39e2f" vector-effect="non-scaling-stroke" d="&#xA;  M 818.2687 435.9818&#xA;  A 19.51 18.76 -69.7 0 0 793.9052 447.7715&#xA;  A 19.51 18.76 -69.7 0 0 804.7313 472.5782&#xA;  A 19.51 18.76 -69.7 0 0 829.0948 460.7885&#xA;  A 19.51 18.76 -69.7 0 0 818.2687 435.9818"></path>
<path stroke="#f39e2f" vector-effect="non-scaling-stroke" d="&#xA;  M 732.8018 587.2329&#xA;  A 19.41 18.90 -55.4 0 0 706.2227 592.4778&#xA;  A 19.41 18.90 -55.4 0 0 710.7582 619.1871&#xA;  A 19.41 18.90 -55.4 0 0 737.3373 613.9422&#xA;  A 19.41 18.90 -55.4 0 0 732.8018 587.2329"></path>
<path stroke="#6d4730" vector-effect="non-scaling-stroke" d="&#xA;  M 622.8305 357.0996&#xA;  A 16.49 16.12 -96.3 0 0 608.6173 375.2589&#xA;  A 16.49 16.12 -96.3 0 0 626.4495 389.8804&#xA;  A 16.49 16.12 -96.3 0 0 640.6627 371.7211&#xA;  A 16.49 16.12 -96.3 0 0 622.8305 357.0996"></path>
<path stroke="#483122" vector-effect="non-scaling-stroke" d="&#xA;  M 463.08 698.60&#xA;  L 454.96 881.11&#xA;  A 0.29 0.29 0.0 0 0 455.25 881.41&#xA;  L 567.49 881.41&#xA;  A 0.23 0.23 0.0 0 0 567.72 881.17&#xA;  L 558.92 704.09&#xA;  A 0.26 0.26 0.0 0 0 558.62 703.84&#xA;  Q 532.77 708.54 506.51 706.14&#xA;  Q 484.01 704.09 463.29 698.44&#xA;  A 0.17 0.17 0.0 0 0 463.08 698.60"></path>
</g>
<path fill="#030201" d="&#xA;  M 621.95 673.59&#xA;  C 612.46 681.15 603.10 688.02 593.44 692.41&#xA;  Q 592.76 692.72 585.56 696.21&#xA;  A 1.04 1.03 79.3 0 0 584.97 697.08&#xA;  Q 584.76 700.15 585.55 705.01&#xA;  Q 585.91 707.20 586.02 716.94&#xA;  C 586.05 719.56 586.81 722.94 586.83 725.00&#xA;  Q 586.93 733.26 587.46 738.61&#xA;  C 588.07 744.60 587.61 749.76 588.40 755.00&#xA;  C 589.28 760.90 588.84 766.20 589.46 772.32&#xA;  Q 589.99 777.53 590.05 783.69&#xA;  C 590.09 789.16 591.07 793.83 590.99 798.87&#xA;  C 590.90 804.86 592.02 811.94 592.03 818.08&#xA;  Q 592.03 822.71 592.43 825.37&#xA;  C 593.24 830.71 592.71 836.71 593.41 841.66&#xA;  C 594.18 847.11 593.80 852.47 594.40 858.09&#xA;  C 595.14 865.03 594.69 871.81 595.62 878.72&#xA;  C 596.12 882.44 595.80 887.95 596.38 891.74&#xA;  Q 596.77 894.30 596.86 897.23&#xA;  A 4.04 3.89 52.5 0 1 596.72 898.48&#xA;  Q 594.29 907.35 586.37 909.66&#xA;  Q 584.61 910.17 580.01 910.17&#xA;  Q 462.10 910.28 441.15 910.11&#xA;  Q 436.00 910.07 435.59 910.03&#xA;  A 5.24 4.99 57.1 0 1 434.34 909.73&#xA;  Q 427.57 907.12 425.32 900.73&#xA;  Q 424.11 897.30 424.84 889.19&#xA;  Q 426.07 875.64 426.03 871.98&#xA;  C 425.97 866.25 427.03 861.23 427.01 855.05&#xA;  Q 426.99 850.56 427.73 844.96&#xA;  C 428.29 840.65 427.79 835.95 428.46 831.45&#xA;  C 429.29 825.92 428.80 818.65 429.54 812.83&#xA;  C 430.27 807.11 429.80 800.98 430.43 795.06&#xA;  Q 431.04 789.25 431.05 784.08&#xA;  C 431.05 778.41 432.00 773.68 432.00 767.76&#xA;  Q 431.99 763.05 432.69 757.14&#xA;  C 433.22 752.69 432.87 747.77 433.52 742.94&#xA;  C 434.19 738.03 433.86 731.13 434.48 726.03&#xA;  C 435.15 720.50 434.80 715.31 435.41 709.99&#xA;  Q 436.01 704.85 436.11 695.73&#xA;  C 436.12 694.87 436.93 693.16 436.17 692.23&#xA;  A 0.60 0.59 51.3 0 0 435.35 692.13&#xA;  Q 434.76 692.59 426.58 697.37&#xA;  Q 421.40 700.40 417.63 702.16&#xA;  Q 402.25 709.37 386.24 712.46&#xA;  Q 363.17 716.91 338.74 713.49&#xA;  Q 302.41 708.40 274.74 684.99&#xA;  Q 256.82 669.83 246.67 647.54&#xA;  Q 244.93 643.71 241.38 632.53&#xA;  Q 240.83 630.80 240.83 628.76&#xA;  A 1.82 1.81 88.6 0 0 238.94 626.95&#xA;  Q 211.39 628.10 186.26 618.83&#xA;  Q 161.68 609.77 141.41 590.23&#xA;  Q 121.59 571.11 110.28 546.54&#xA;  Q 106.67 538.68 103.14 526.20&#xA;  Q 99.89 514.73 98.78 505.11&#xA;  Q 95.84 479.76 99.06 458.99&#xA;  Q 106.68 409.84 144.24 377.21&#xA;  Q 158.27 365.02 175.59 357.65&#xA;  A 0.86 0.85 -19.8 0 0 176.07 356.64&#xA;  Q 169.10 331.68 171.04 305.48&#xA;  Q 171.97 293.05 175.52 279.52&#xA;  C 183.90 247.63 205.89 219.66 233.42 202.20&#xA;  Q 269.02 179.62 312.02 181.08&#xA;  C 317.13 181.25 322.01 182.22 326.87 183.14&#xA;  A 1.34 1.34 0.0 0 0 328.29 182.47&#xA;  C 328.91 181.35 328.97 179.66 329.36 178.21&#xA;  Q 329.92 176.09 331.10 172.80&#xA;  Q 342.50 141.15 367.83 117.78&#xA;  Q 392.08 95.40 423.66 83.43&#xA;  C 444.38 75.58 465.60 72.11 487.47 73.22&#xA;  Q 528.87 75.33 565.61 101.11&#xA;  Q 593.90 120.96 611.10 150.69&#xA;  A 1.01 1.01 0.0 0 0 612.39 151.10&#xA;  Q 627.71 144.14 644.43 141.49&#xA;  Q 647.79 140.96 650.58 140.90&#xA;  C 653.38 140.84 656.09 140.07 658.81 140.04&#xA;  Q 679.64 139.77 695.72 143.54&#xA;  Q 724.77 150.35 749.64 168.11&#xA;  C 775.46 186.55 795.07 213.36 804.00 243.83&#xA;  C 807.88 257.02 809.21 271.09 808.84 285.25&#xA;  Q 808.75 288.62 808.08 292.10&#xA;  A 1.34 1.33 -79.2 0 0 809.13 293.66&#xA;  Q 815.68 294.93 821.28 296.94&#xA;  Q 838.78 303.24 852.02 311.99&#xA;  C 873.45 326.15 891.36 344.91 903.73 367.41&#xA;  Q 918.21 393.75 922.53 423.48&#xA;  Q 924.58 437.55 923.84 453.65&#xA;  C 923.72 456.21 923.02 458.65 922.98 461.22&#xA;  Q 922.96 462.38 922.74 464.26&#xA;  C 919.27 493.11 908.14 521.18 889.77 543.70&#xA;  Q 888.48 545.28 887.16 546.93&#xA;  Q 868.25 570.44 841.68 583.57&#xA;  A 1.45 0.06 -19.0 0 1 840.75 583.93&#xA;  Q 838.87 584.61 838.68 587.23&#xA;  Q 836.03 624.67 815.52 654.10&#xA;  Q 797.04 680.63 768.06 695.04&#xA;  Q 753.17 702.45 735.99 705.71&#xA;  Q 713.34 710.00 688.10 706.39&#xA;  C 663.23 702.83 640.22 691.47 622.79 673.64&#xA;  A 0.63 0.62 48.2 0 0 621.95 673.59&#xA;  Z&#xA;  M 435.77 690.89&#xA;  Q 438.30 691.10 438.03 694.25&#xA;  Q 436.95 706.98 435.54 731.56&#xA;  Q 433.30 770.53 432.51 781.27&#xA;  C 431.92 789.38 432.02 797.11 431.54 804.82&#xA;  Q 428.76 849.01 427.18 876.99&#xA;  Q 426.83 883.09 426.49 886.52&#xA;  Q 425.76 893.85 425.95 896.03&#xA;  Q 427.02 908.96 439.77 908.96&#xA;  Q 562.64 908.93 580.75 909.03&#xA;  Q 589.94 909.09 594.27 901.30&#xA;  Q 595.30 899.45 595.12 897.01&#xA;  C 594.83 893.03 595.07 888.56 594.42 884.38&#xA;  C 593.81 880.46 594.16 876.30 593.77 872.05&#xA;  C 593.35 867.37 592.94 864.20 592.95 859.80&#xA;  Q 592.97 854.50 592.59 851.41&#xA;  C 591.83 845.32 592.18 839.80 591.54 833.46&#xA;  C 591.01 828.14 591.49 823.07 590.83 818.58&#xA;  Q 590.14 813.93 589.97 807.42&#xA;  Q 589.77 799.52 589.44 796.97&#xA;  C 588.88 792.71 589.32 787.75 588.79 784.06&#xA;  C 587.84 777.33 588.20 769.61 587.54 763.45&#xA;  C 586.81 756.63 587.29 749.75 585.97 743.43&#xA;  A 1.28 1.17 42.4 0 1 585.95 743.21&#xA;  L 583.82 696.76&#xA;  A 1.85 1.85 0.0 0 1 584.95 694.97&#xA;  Q 604.06 687.02 619.84 673.35&#xA;  Q 621.20 672.17 623.44 672.61&#xA;  A 1.50 1.47 -14.3 0 1 624.27 673.09&#xA;  Q 628.97 678.35 634.77 682.74&#xA;  Q 657.04 699.56 682.19 703.96&#xA;  Q 687.18 704.84 690.09 705.33&#xA;  Q 693.08 705.84 698.00 706.08&#xA;  Q 701.28 706.24 707.73 706.81&#xA;  Q 710.89 707.09 726.31 705.90&#xA;  Q 726.52 705.89 730.80 705.20&#xA;  C 734.45 704.61 738.31 704.41 742.03 703.38&#xA;  Q 753.85 700.12 765.79 694.74&#xA;  C 770.80 692.49 775.30 689.49 781.23 685.97&#xA;  Q 785.03 683.72 796.67 673.86&#xA;  C 800.26 670.81 802.27 668.03 805.38 664.80&#xA;  Q 808.33 661.74 811.44 657.56&#xA;  C 822.40 642.83 830.82 625.53 834.36 607.46&#xA;  C 836.11 598.55 837.18 593.34 837.17 587.01&#xA;  Q 837.17 585.14 838.31 583.78&#xA;  A 2.06 1.99 -81.3 0 1 839.03 583.23&#xA;  Q 847.99 579.25 856.58 573.32&#xA;  C 859.89 571.04 865.50 567.12 869.30 563.67&#xA;  Q 898.61 537.03 912.13 501.90&#xA;  Q 916.93 489.45 920.61 470.43&#xA;  C 921.15 467.63 920.96 464.48 921.54 461.73&#xA;  C 922.36 457.85 921.87 452.37 922.24 447.89&#xA;  Q 922.66 442.78 922.25 440.59&#xA;  Q 921.78 438.09 921.89 433.20&#xA;  Q 921.95 430.88 921.33 425.82&#xA;  Q 919.63 411.88 916.88 403.11&#xA;  C 914.68 396.12 912.69 389.04 909.64 382.37&#xA;  Q 905.56 373.45 902.61 368.11&#xA;  Q 889.58 344.59 869.15 326.60&#xA;  Q 854.41 313.61 837.66 305.39&#xA;  Q 824.90 299.12 814.84 296.24&#xA;  Q 812.05 295.44 808.99 295.30&#xA;  Q 806.85 295.20 806.91 293.00&#xA;  Q 807.20 282.16 807.18 276.34&#xA;  Q 807.15 267.23 805.97 259.74&#xA;  Q 803.16 242.00 796.79 227.92&#xA;  Q 795.45 224.95 793.06 220.04&#xA;  Q 790.78 215.34 788.90 212.44&#xA;  Q 779.09 197.27 771.07 188.51&#xA;  Q 758.53 174.81 740.34 163.43&#xA;  Q 717.42 149.11 690.46 143.69&#xA;  Q 681.10 141.81 669.92 141.68&#xA;  Q 656.57 141.52 649.26 142.20&#xA;  Q 633.24 143.68 614.44 151.63&#xA;  Q 612.52 152.45 609.81 151.17&#xA;  A 1.45 1.39 88.8 0 1 609.15 150.51&#xA;  C 606.13 144.25 602.58 139.67 598.21 133.79&#xA;  Q 595.42 130.04 591.49 125.93&#xA;  Q 582.94 117.00 581.97 116.10&#xA;  Q 548.63 84.95 504.75 76.49&#xA;  Q 496.17 74.83 484.21 74.61&#xA;  Q 470.77 74.36 463.52 75.14&#xA;  Q 439.63 77.70 415.58 88.16&#xA;  Q 405.24 92.66 396.54 97.84&#xA;  Q 383.04 105.89 371.14 116.38&#xA;  C 351.69 133.53 335.66 157.16 329.90 182.52&#xA;  A 1.37 1.37 0.0 0 1 328.98 183.53&#xA;  Q 326.66 184.29 325.51 184.10&#xA;  Q 312.20 181.96 295.43 182.86&#xA;  Q 289.32 183.18 284.94 184.32&#xA;  C 283.20 184.77 280.72 184.86 279.28 185.15&#xA;  Q 237.52 193.53 208.60 224.34&#xA;  Q 203.97 229.28 203.59 229.66&#xA;  Q 201.33 231.98 198.93 235.30&#xA;  Q 190.66 246.74 186.56 254.79&#xA;  C 181.59 264.59 177.51 275.00 175.27 286.67&#xA;  Q 173.47 296.07 172.96 300.26&#xA;  Q 169.88 325.37 175.89 350.23&#xA;  Q 177.03 354.98 177.37 356.94&#xA;  A 1.66 1.64 -35.3 0 1 177.17 358.07&#xA;  C 176.28 359.61 174.34 359.67 172.66 360.42&#xA;  Q 155.00 368.26 141.52 381.66&#xA;  C 140.27 382.91 138.52 384.09 137.56 385.05&#xA;  Q 114.52 408.35 105.07 438.58&#xA;  C 98.06 461.01 97.10 486.14 100.90 509.48&#xA;  Q 109.76 563.84 152.84 598.57&#xA;  Q 162.41 606.29 172.82 611.45&#xA;  C 183.02 616.51 194.59 621.02 206.26 623.18&#xA;  Q 222.79 626.24 240.10 625.62&#xA;  A 1.49 1.48 82.9 0 1 241.61 626.80&#xA;  C 246.17 648.65 257.56 668.30 274.48 683.08&#xA;  Q 282.60 690.16 289.54 694.26&#xA;  Q 301.15 701.10 305.25 702.77&#xA;  Q 314.34 706.47 323.52 709.04&#xA;  Q 332.52 711.55 341.33 712.37&#xA;  Q 352.94 713.46 359.48 713.28&#xA;  Q 361.81 713.21 364.99 713.18&#xA;  Q 394.43 712.85 420.75 698.96&#xA;  Q 429.98 694.10 435.03 691.06&#xA;  A 1.29 1.25 31.2 0 1 435.77 690.89&#xA;  Z"></path>
<path fill="#4c2e1d" d="&#xA;  M 435.03 691.06&#xA;  Q 429.98 694.10 420.75 698.96&#xA;  Q 394.43 712.85 364.99 713.18&#xA;  Q 361.81 713.21 359.48 713.28&#xA;  Q 352.94 713.46 341.33 712.37&#xA;  Q 332.52 711.55 323.52 709.04&#xA;  Q 314.34 706.47 305.25 702.77&#xA;  Q 301.15 701.10 289.54 694.26&#xA;  Q 282.60 690.16 274.48 683.08&#xA;  C 257.56 668.30 246.17 648.65 241.61 626.80&#xA;  A 1.49 1.48 82.9 0 0 240.10 625.62&#xA;  Q 222.79 626.24 206.26 623.18&#xA;  C 194.59 621.02 183.02 616.51 172.82 611.45&#xA;  Q 162.41 606.29 152.84 598.57&#xA;  Q 109.76 563.84 100.90 509.48&#xA;  C 97.10 486.14 98.06 461.01 105.07 438.58&#xA;  Q 114.52 408.35 137.56 385.05&#xA;  C 138.52 384.09 140.27 382.91 141.52 381.66&#xA;  Q 155.00 368.26 172.66 360.42&#xA;  C 174.34 359.67 176.28 359.61 177.17 358.07&#xA;  A 1.66 1.64 -35.3 0 0 177.37 356.94&#xA;  Q 177.03 354.98 175.89 350.23&#xA;  Q 169.88 325.37 172.96 300.26&#xA;  Q 173.47 296.07 175.27 286.67&#xA;  C 177.51 275.00 181.59 264.59 186.56 254.79&#xA;  Q 190.66 246.74 198.93 235.30&#xA;  Q 201.33 231.98 203.59 229.66&#xA;  Q 203.97 229.28 208.60 224.34&#xA;  Q 237.52 193.53 279.28 185.15&#xA;  C 280.72 184.86 283.20 184.77 284.94 184.32&#xA;  Q 289.32 183.18 295.43 182.86&#xA;  Q 312.20 181.96 325.51 184.10&#xA;  Q 326.66 184.29 328.98 183.53&#xA;  A 1.37 1.37 0.0 0 0 329.90 182.52&#xA;  C 335.66 157.16 351.69 133.53 371.14 116.38&#xA;  Q 383.04 105.89 396.54 97.84&#xA;  Q 405.24 92.66 415.58 88.16&#xA;  Q 439.63 77.70 463.52 75.14&#xA;  Q 470.77 74.36 484.21 74.61&#xA;  Q 496.17 74.83 504.75 76.49&#xA;  Q 548.63 84.95 581.97 116.10&#xA;  Q 582.94 117.00 591.49 125.93&#xA;  Q 595.42 130.04 598.21 133.79&#xA;  C 602.58 139.67 606.13 144.25 609.15 150.51&#xA;  A 1.45 1.39 88.8 0 0 609.81 151.17&#xA;  Q 612.52 152.45 614.44 151.63&#xA;  Q 633.24 143.68 649.26 142.20&#xA;  Q 656.57 141.52 669.92 141.68&#xA;  Q 681.10 141.81 690.46 143.69&#xA;  Q 717.42 149.11 740.34 163.43&#xA;  Q 758.53 174.81 771.07 188.51&#xA;  Q 779.09 197.27 788.90 212.44&#xA;  Q 790.78 215.34 793.06 220.04&#xA;  Q 795.45 224.95 796.79 227.92&#xA;  Q 803.16 242.00 805.97 259.74&#xA;  Q 807.15 267.23 807.18 276.34&#xA;  Q 807.20 282.16 806.91 293.00&#xA;  Q 806.85 295.20 808.99 295.30&#xA;  Q 812.05 295.44 814.84 296.24&#xA;  Q 824.90 299.12 837.66 305.39&#xA;  Q 854.41 313.61 869.15 326.60&#xA;  Q 889.58 344.59 902.61 368.11&#xA;  Q 905.56 373.45 909.64 382.37&#xA;  C 912.69 389.04 914.68 396.12 916.88 403.11&#xA;  Q 919.63 411.88 921.33 425.82&#xA;  Q 921.95 430.88 921.89 433.20&#xA;  Q 921.78 438.09 922.25 440.59&#xA;  Q 922.66 442.78 922.24 447.89&#xA;  C 921.87 452.37 922.36 457.85 921.54 461.73&#xA;  C 920.96 464.48 921.15 467.63 920.61 470.43&#xA;  Q 916.93 489.45 912.13 501.90&#xA;  Q 898.61 537.03 869.30 563.67&#xA;  C 865.50 567.12 859.89 571.04 856.58 573.32&#xA;  Q 847.99 579.25 839.03 583.23&#xA;  A 2.06 1.99 -81.3 0 0 838.31 583.78&#xA;  Q 837.17 585.14 837.17 587.01&#xA;  C 837.18 593.34 836.11 598.55 834.36 607.46&#xA;  C 830.82 625.53 822.40 642.83 811.44 657.56&#xA;  Q 808.33 661.74 805.38 664.80&#xA;  C 802.27 668.03 800.26 670.81 796.67 673.86&#xA;  Q 785.03 683.72 781.23 685.97&#xA;  C 775.30 689.49 770.80 692.49 765.79 694.74&#xA;  Q 753.85 700.12 742.03 703.38&#xA;  C 738.31 704.41 734.45 704.61 730.80 705.20&#xA;  Q 726.52 705.89 726.31 705.90&#xA;  Q 710.89 707.09 707.73 706.81&#xA;  Q 701.28 706.24 698.00 706.08&#xA;  Q 693.08 705.84 690.09 705.33&#xA;  Q 687.18 704.84 682.19 703.96&#xA;  Q 657.04 699.56 634.77 682.74&#xA;  Q 628.97 678.35 624.27 673.09&#xA;  A 1.50 1.47 -14.3 0 0 623.44 672.61&#xA;  Q 621.20 672.17 619.84 673.35&#xA;  Q 604.06 687.02 584.95 694.97&#xA;  A 1.85 1.85 0.0 0 0 583.82 696.76&#xA;  L 585.95 743.21&#xA;  A 1.28 1.17 42.4 0 0 585.97 743.43&#xA;  C 587.29 749.75 586.81 756.63 587.54 763.45&#xA;  C 588.20 769.61 587.84 777.33 588.79 784.06&#xA;  C 589.32 787.75 588.88 792.71 589.44 796.97&#xA;  Q 589.77 799.52 589.97 807.42&#xA;  Q 590.14 813.93 590.83 818.58&#xA;  C 591.49 823.07 591.01 828.14 591.54 833.46&#xA;  C 592.18 839.80 591.83 845.32 592.59 851.41&#xA;  Q 592.97 854.50 592.95 859.80&#xA;  C 592.94 864.20 593.35 867.37 593.77 872.05&#xA;  C 594.16 876.30 593.81 880.46 594.42 884.38&#xA;  C 595.07 888.56 594.83 893.03 595.12 897.01&#xA;  Q 595.30 899.45 594.27 901.30&#xA;  Q 589.94 909.09 580.75 909.03&#xA;  Q 562.64 908.93 439.77 908.96&#xA;  Q 427.02 908.96 425.95 896.03&#xA;  Q 425.76 893.85 426.49 886.52&#xA;  Q 426.83 883.09 427.18 876.99&#xA;  Q 428.76 849.01 431.54 804.82&#xA;  C 432.02 797.11 431.92 789.38 432.51 781.27&#xA;  Q 433.30 770.53 435.54 731.56&#xA;  Q 436.95 706.98 438.03 694.25&#xA;  Q 438.30 691.10 435.77 690.89&#xA;  A 1.29 1.25 31.2 0 0 435.03 691.06&#xA;  Z&#xA;  M 504.97 545.05&#xA;  Q 505.45 545.09 505.67 545.02&#xA;  Q 506.08 545.19 506.27 545.16&#xA;  Q 506.66 545.11 506.66 544.44&#xA;  Q 506.65 539.34 506.75 534.25&#xA;  Q 506.97 523.18 506.89 449.25&#xA;  Q 506.89 441.95 513.00 437.97&#xA;  Q 518.13 434.63 523.97 436.60&#xA;  Q 533.07 439.66 533.25 449.76&#xA;  Q 533.25 449.88 533.44 499.89&#xA;  A 1.63 1.63 0.0 0 0 536.20 501.07&#xA;  Q 572.30 466.79 577.02 462.14&#xA;  C 583.28 455.97 590.71 449.69 597.28 442.88&#xA;  C 601.65 438.34 605.81 435.32 611.76 436.23&#xA;  Q 615.21 436.76 617.71 438.95&#xA;  C 624.28 444.67 625.10 454.37 618.76 460.51&#xA;  C 610.02 468.98 599.75 477.94 591.20 486.30&#xA;  Q 578.11 499.10 557.32 518.53&#xA;  C 549.56 525.77 542.40 533.52 534.95 540.17&#xA;  A 5.00 4.99 69.3 0 0 533.27 543.91&#xA;  L 533.27 677.11&#xA;  A 1.80 1.79 88.9 0 0 535.13 678.91&#xA;  Q 572.83 677.58 601.68 654.62&#xA;  C 606.69 650.63 610.92 646.02 615.42 641.66&#xA;  Q 616.80 640.31 621.28 638.89&#xA;  A 2.26 2.25 39.6 0 1 622.24 638.80&#xA;  Q 629.33 639.54 633.70 645.05&#xA;  C 640.36 653.46 648.01 661.20 656.85 666.75&#xA;  Q 679.91 681.23 707.98 681.87&#xA;  Q 712.44 681.97 715.05 681.61&#xA;  C 720.99 680.79 726.81 680.73 732.55 679.39&#xA;  Q 766.53 671.46 788.88 644.93&#xA;  C 803.43 627.66 811.69 605.90 810.88 583.25&#xA;  C 810.65 576.73 810.33 571.68 814.83 567.05&#xA;  Q 816.54 565.29 824.03 562.12&#xA;  Q 834.68 557.61 845.48 549.24&#xA;  Q 887.44 516.72 895.21 464.86&#xA;  C 895.95 459.95 896.25 454.27 896.42 448.28&#xA;  C 897.31 416.05 886.29 384.19 865.05 359.76&#xA;  Q 841.76 332.97 808.43 322.12&#xA;  Q 802.44 320.17 796.16 319.06&#xA;  Q 787.98 317.60 785.92 316.38&#xA;  Q 780.38 313.09 779.55 306.12&#xA;  Q 779.22 303.27 780.77 296.47&#xA;  Q 782.85 287.38 782.41 276.99&#xA;  Q 781.23 248.89 765.95 224.34&#xA;  Q 751.15 200.55 727.22 185.59&#xA;  C 704.30 171.26 677.34 164.32 650.45 168.39&#xA;  Q 646.95 168.92 642.67 170.09&#xA;  C 632.68 172.82 623.48 175.97 614.72 181.30&#xA;  C 608.84 184.88 601.56 186.35 596.22 181.64&#xA;  Q 594.23 179.88 591.90 174.18&#xA;  C 579.55 144.01 555.01 122.01 524.77 109.43&#xA;  Q 503.58 100.61 480.17 100.04&#xA;  Q 457.67 99.48 435.70 107.59&#xA;  C 411.39 116.57 389.28 132.31 373.47 153.22&#xA;  Q 357.66 174.13 353.39 199.59&#xA;  Q 352.41 205.47 351.31 207.11&#xA;  C 348.53 211.24 342.94 213.64 338.07 212.68&#xA;  Q 327.11 210.54 322.52 209.77&#xA;  Q 309.38 207.56 296.43 208.62&#xA;  Q 290.66 209.09 284.19 210.53&#xA;  Q 275.86 212.39 272.11 213.69&#xA;  Q 230.01 228.27 209.30 266.91&#xA;  C 203.33 278.05 199.38 290.70 198.48 303.23&#xA;  Q 197.41 317.98 198.37 326.75&#xA;  Q 199.81 339.84 202.44 347.57&#xA;  Q 204.29 353.00 207.12 361.39&#xA;  Q 209.06 367.15 205.76 372.00&#xA;  Q 202.24 377.15 197.67 378.68&#xA;  Q 181.15 384.19 168.15 394.17&#xA;  Q 154.58 404.60 145.65 416.88&#xA;  Q 123.73 447.04 124.38 487.00&#xA;  Q 124.56 498.12 126.68 509.26&#xA;  Q 132.69 540.76 152.75 563.63&#xA;  Q 167.46 580.38 186.70 589.62&#xA;  Q 206.59 599.16 228.25 599.68&#xA;  Q 237.09 599.90 249.74 599.94&#xA;  Q 253.69 599.96 257.55 601.71&#xA;  C 264.57 604.89 264.45 611.59 265.62 619.60&#xA;  C 267.68 633.73 276.11 648.29 285.68 658.36&#xA;  C 313.19 687.30 357.36 696.10 394.42 683.08&#xA;  Q 410.45 677.44 423.72 666.71&#xA;  Q 431.18 660.68 431.79 660.11&#xA;  C 439.49 652.97 447.98 659.61 455.55 664.19&#xA;  Q 462.73 668.54 471.98 671.78&#xA;  Q 488.18 677.46 504.06 678.87&#xA;  Q 506.93 679.13 506.93 675.64&#xA;  Q 506.96 628.09 506.88 586.62&#xA;  A 1.38 1.28 -59.9 0 0 506.75 586.04&#xA;  Q 506.03 584.55 504.29 582.86&#xA;  Q 481.87 561.11 468.19 547.88&#xA;  Q 465.28 545.07 464.89 544.68&#xA;  Q 419.87 499.63 400.75 480.95&#xA;  C 393.37 473.74 386.34 466.26 379.35 459.44&#xA;  A 4.95 4.80 6.3 0 1 378.68 458.63&#xA;  C 374.02 451.48 375.62 441.74 383.47 437.46&#xA;  Q 388.46 434.74 393.86 436.70&#xA;  Q 396.40 437.62 402.11 443.48&#xA;  Q 436.45 478.71 452.45 494.47&#xA;  Q 468.74 510.52 486.77 528.65&#xA;  Q 488.76 530.66 504.33 545.52&#xA;  A 0.42 0.42 0.0 0 0 505.02 545.34&#xA;  Q 505.04 545.26 504.97 545.05&#xA;  Z&#xA;  M 462.46 698.60&#xA;  Q 461.56 702.30 461.38 708.22&#xA;  Q 460.46 738.02 458.30 778.24&#xA;  C 457.98 784.25 458.17 789.34 457.76 794.27&#xA;  Q 457.20 800.91 457.03 806.24&#xA;  Q 456.38 826.55 455.49 846.76&#xA;  Q 454.56 867.97 454.21 874.48&#xA;  Q 453.97 879.14 454.58 881.98&#xA;  A 0.90 0.89 84.0 0 0 455.45 882.69&#xA;  L 566.63 882.69&#xA;  A 2.11 2.11 0.0 0 0 568.70 880.98&#xA;  Q 569.01 879.39 568.85 877.50&#xA;  C 568.12 868.77 567.46 849.60 566.08 825.93&#xA;  Q 565.45 815.00 561.16 726.60&#xA;  C 560.81 719.37 561.06 711.83 559.92 704.54&#xA;  A 2.01 2.00 -9.2 0 0 557.60 702.88&#xA;  Q 529.51 707.72 501.36 704.44&#xA;  Q 493.07 703.48 482.61 701.73&#xA;  Q 472.95 700.11 464.14 697.62&#xA;  A 1.35 1.35 0.0 0 0 462.46 698.60&#xA;  Z"></path>
<path fill="#030201" d="&#xA;  M 505.67 545.02&#xA;  L 505.62 500.33&#xA;  Q 505.68 477.23 505.66 454.26&#xA;  C 505.66 450.56 505.50 446.33 506.83 443.37&#xA;  Q 510.79 434.54 521.37 434.68&#xA;  Q 534.74 437.44 534.74 451.01&#xA;  Q 534.75 471.49 534.63 500.64&#xA;  A 0.23 0.22 68.6 0 0 535.01 500.81&#xA;  Q 561.68 475.21 599.89 438.90&#xA;  C 606.60 432.52 617.12 433.78 621.91 441.86&#xA;  Q 626.37 449.41 622.56 457.29&#xA;  C 621.48 459.53 618.45 462.16 616.24 464.24&#xA;  Q 582.09 496.45 535.54 541.00&#xA;  A 2.54 2.51 -22.0 0 0 534.75 542.83&#xA;  L 534.75 677.38&#xA;  A 0.33 0.33 0.0 0 0 535.10 677.71&#xA;  C 565.88 676.34 592.69 664.58 613.54 641.84&#xA;  C 619.70 635.11 629.63 637.43 634.58 644.21&#xA;  C 658.60 677.14 702.59 687.47 740.21 675.93&#xA;  Q 771.82 666.24 791.94 639.23&#xA;  Q 806.75 619.34 809.54 593.24&#xA;  Q 809.77 591.11 809.66 579.90&#xA;  C 809.61 573.90 810.17 570.63 813.88 566.29&#xA;  Q 815.44 564.46 822.24 561.65&#xA;  Q 836.50 555.77 850.61 543.61&#xA;  Q 869.07 527.72 879.64 508.31&#xA;  C 899.05 472.70 900.23 427.35 883.40 390.39&#xA;  C 868.13 356.86 838.30 331.00 802.32 321.73&#xA;  Q 796.13 320.13 793.08 319.62&#xA;  Q 787.18 318.64 784.43 316.72&#xA;  C 778.67 312.70 777.22 306.89 778.62 300.17&#xA;  C 779.54 295.71 780.57 292.09 780.86 287.35&#xA;  Q 781.79 272.31 778.67 258.52&#xA;  Q 772.88 232.95 755.82 212.19&#xA;  C 721.83 170.84 661.38 154.22 613.41 183.40&#xA;  Q 608.48 186.40 602.75 185.91&#xA;  C 593.80 184.08 592.12 177.56 588.89 170.11&#xA;  C 575.87 140.09 546.78 117.67 516.28 107.49&#xA;  C 479.89 95.35 442.36 101.34 410.11 121.33&#xA;  Q 393.33 131.73 380.11 146.60&#xA;  Q 360.50 168.66 355.06 196.94&#xA;  Q 353.33 205.88 352.31 207.43&#xA;  C 348.68 212.93 342.01 214.88 335.48 213.35&#xA;  C 318.80 209.45 301.84 208.01 285.20 211.45&#xA;  C 257.02 217.28 232.91 232.86 216.59 256.61&#xA;  Q 200.53 279.99 199.08 308.27&#xA;  Q 198.14 326.54 201.96 341.67&#xA;  Q 204.08 350.09 208.25 361.05&#xA;  C 210.88 367.97 205.58 376.42 199.18 379.23&#xA;  C 193.70 381.63 187.87 383.33 181.96 386.51&#xA;  C 154.16 401.49 134.46 427.92 128.06 459.03&#xA;  C 119.13 502.47 132.77 549.02 168.17 576.83&#xA;  Q 192.49 595.93 224.01 598.42&#xA;  Q 230.41 598.73 251.00 598.91&#xA;  Q 260.14 598.98 264.61 607.36&#xA;  A 3.93 3.71 27.0 0 1 265.00 608.45&#xA;  Q 265.37 610.42 266.42 617.66&#xA;  C 270.48 645.67 291.57 667.95 316.88 678.82&#xA;  Q 350.22 693.12 385.53 684.65&#xA;  Q 405.68 679.43 422.03 666.76&#xA;  Q 425.71 663.91 431.29 659.29&#xA;  Q 434.33 656.78 435.96 656.38&#xA;  C 443.61 654.53 449.30 659.01 455.82 662.98&#xA;  Q 460.16 665.62 463.88 667.25&#xA;  Q 483.83 676.01 505.32 677.66&#xA;  A 0.30 0.30 0.0 0 0 505.64 677.36&#xA;  L 505.66 592.94&#xA;  L 505.56 587.33&#xA;  A 3.68 3.67 -68.4 0 0 504.46 584.78&#xA;  Q 434.24 515.72 399.56 481.19&#xA;  Q 381.58 463.29 378.77 460.21&#xA;  Q 374.51 455.54 375.14 448.76&#xA;  C 376.05 438.95 385.43 432.10 394.46 435.78&#xA;  Q 397.83 437.15 403.82 443.72&#xA;  Q 407.70 447.98 412.30 452.70&#xA;  Q 425.47 466.20 477.84 518.19&#xA;  L 504.97 545.05&#xA;  Q 505.04 545.26 505.02 545.34&#xA;  A 0.42 0.42 0.0 0 1 504.33 545.52&#xA;  Q 488.76 530.66 486.77 528.65&#xA;  Q 468.74 510.52 452.45 494.47&#xA;  Q 436.45 478.71 402.11 443.48&#xA;  Q 396.40 437.62 393.86 436.70&#xA;  Q 388.46 434.74 383.47 437.46&#xA;  C 375.62 441.74 374.02 451.48 378.68 458.63&#xA;  A 4.95 4.80 6.3 0 0 379.35 459.44&#xA;  C 386.34 466.26 393.37 473.74 400.75 480.95&#xA;  Q 419.87 499.63 464.89 544.68&#xA;  Q 465.28 545.07 468.19 547.88&#xA;  Q 481.87 561.11 504.29 582.86&#xA;  Q 506.03 584.55 506.75 586.04&#xA;  A 1.38 1.28 -59.9 0 1 506.88 586.62&#xA;  Q 506.96 628.09 506.93 675.64&#xA;  Q 506.93 679.13 504.06 678.87&#xA;  Q 488.18 677.46 471.98 671.78&#xA;  Q 462.73 668.54 455.55 664.19&#xA;  C 447.98 659.61 439.49 652.97 431.79 660.11&#xA;  Q 431.18 660.68 423.72 666.71&#xA;  Q 410.45 677.44 394.42 683.08&#xA;  C 357.36 696.10 313.19 687.30 285.68 658.36&#xA;  C 276.11 648.29 267.68 633.73 265.62 619.60&#xA;  C 264.45 611.59 264.57 604.89 257.55 601.71&#xA;  Q 253.69 599.96 249.74 599.94&#xA;  Q 237.09 599.90 228.25 599.68&#xA;  Q 206.59 599.16 186.70 589.62&#xA;  Q 167.46 580.38 152.75 563.63&#xA;  Q 132.69 540.76 126.68 509.26&#xA;  Q 124.56 498.12 124.38 487.00&#xA;  Q 123.73 447.04 145.65 416.88&#xA;  Q 154.58 404.60 168.15 394.17&#xA;  Q 181.15 384.19 197.67 378.68&#xA;  Q 202.24 377.15 205.76 372.00&#xA;  Q 209.06 367.15 207.12 361.39&#xA;  Q 204.29 353.00 202.44 347.57&#xA;  Q 199.81 339.84 198.37 326.75&#xA;  Q 197.41 317.98 198.48 303.23&#xA;  C 199.38 290.70 203.33 278.05 209.30 266.91&#xA;  Q 230.01 228.27 272.11 213.69&#xA;  Q 275.86 212.39 284.19 210.53&#xA;  Q 290.66 209.09 296.43 208.62&#xA;  Q 309.38 207.56 322.52 209.77&#xA;  Q 327.11 210.54 338.07 212.68&#xA;  C 342.94 213.64 348.53 211.24 351.31 207.11&#xA;  Q 352.41 205.47 353.39 199.59&#xA;  Q 357.66 174.13 373.47 153.22&#xA;  C 389.28 132.31 411.39 116.57 435.70 107.59&#xA;  Q 457.67 99.48 480.17 100.04&#xA;  Q 503.58 100.61 524.77 109.43&#xA;  C 555.01 122.01 579.55 144.01 591.90 174.18&#xA;  Q 594.23 179.88 596.22 181.64&#xA;  C 601.56 186.35 608.84 184.88 614.72 181.30&#xA;  C 623.48 175.97 632.68 172.82 642.67 170.09&#xA;  Q 646.95 168.92 650.45 168.39&#xA;  C 677.34 164.32 704.30 171.26 727.22 185.59&#xA;  Q 751.15 200.55 765.95 224.34&#xA;  Q 781.23 248.89 782.41 276.99&#xA;  Q 782.85 287.38 780.77 296.47&#xA;  Q 779.22 303.27 779.55 306.12&#xA;  Q 780.38 313.09 785.92 316.38&#xA;  Q 787.98 317.60 796.16 319.06&#xA;  Q 802.44 320.17 808.43 322.12&#xA;  Q 841.76 332.97 865.05 359.76&#xA;  C 886.29 384.19 897.31 416.05 896.42 448.28&#xA;  C 896.25 454.27 895.95 459.95 895.21 464.86&#xA;  Q 887.44 516.72 845.48 549.24&#xA;  Q 834.68 557.61 824.03 562.12&#xA;  Q 816.54 565.29 814.83 567.05&#xA;  C 810.33 571.68 810.65 576.73 810.88 583.25&#xA;  C 811.69 605.90 803.43 627.66 788.88 644.93&#xA;  Q 766.53 671.46 732.55 679.39&#xA;  C 726.81 680.73 720.99 680.79 715.05 681.61&#xA;  Q 712.44 681.97 707.98 681.87&#xA;  Q 679.91 681.23 656.85 666.75&#xA;  C 648.01 661.20 640.36 653.46 633.70 645.05&#xA;  Q 629.33 639.54 622.24 638.80&#xA;  A 2.26 2.25 39.6 0 0 621.28 638.89&#xA;  Q 616.80 640.31 615.42 641.66&#xA;  C 610.92 646.02 606.69 650.63 601.68 654.62&#xA;  Q 572.83 677.58 535.13 678.91&#xA;  A 1.80 1.79 88.9 0 1 533.27 677.11&#xA;  L 533.27 543.91&#xA;  A 5.00 4.99 69.3 0 1 534.95 540.17&#xA;  C 542.40 533.52 549.56 525.77 557.32 518.53&#xA;  Q 578.11 499.10 591.20 486.30&#xA;  C 599.75 477.94 610.02 468.98 618.76 460.51&#xA;  C 625.10 454.37 624.28 444.67 617.71 438.95&#xA;  Q 615.21 436.76 611.76 436.23&#xA;  C 605.81 435.32 601.65 438.34 597.28 442.88&#xA;  C 590.71 449.69 583.28 455.97 577.02 462.14&#xA;  Q 572.30 466.79 536.20 501.07&#xA;  A 1.63 1.63 0.0 0 1 533.44 499.89&#xA;  Q 533.25 449.88 533.25 449.76&#xA;  Q 533.07 439.66 523.97 436.60&#xA;  Q 518.13 434.63 513.00 437.97&#xA;  Q 506.89 441.95 506.89 449.25&#xA;  Q 506.97 523.18 506.75 534.25&#xA;  Q 506.65 539.34 506.66 544.44&#xA;  Q 506.66 545.11 506.27 545.16&#xA;  Q 506.08 545.19 505.67 545.02&#xA;  Z"></path>
<path fill="#e8752b" d="&#xA;  M 602.75 185.91&#xA;  Q 602.07 185.89 602.00 186.38&#xA;  A 0.37 0.37 0.0 0 0 602.26 186.79&#xA;  Q 602.64 186.89 602.76 187.02&#xA;  A 1.31 1.30 22.9 0 1 603.13 187.93&#xA;  Q 603.13 190.20 602.93 191.99&#xA;  Q 598.39 232.89 573.66 265.67&#xA;  Q 559.22 284.83 542.18 297.70&#xA;  Q 527.59 308.71 507.22 318.17&#xA;  C 488.31 299.15 465.30 287.57 438.45 284.59&#xA;  C 421.49 282.70 404.72 285.72 388.20 291.01&#xA;  A 3.39 3.35 49.9 0 1 385.57 290.77&#xA;  C 373.81 284.48 364.72 271.60 359.12 259.66&#xA;  C 352.62 245.80 349.47 228.79 348.72 213.80&#xA;  A 0.52 0.52 0.0 0 0 348.00 213.35&#xA;  C 343.62 215.24 340.00 215.56 335.08 214.49&#xA;  Q 322.49 211.74 309.30 211.01&#xA;  C 276.30 209.16 243.85 224.72 223.45 249.81&#xA;  C 207.10 269.90 199.07 294.32 200.42 319.83&#xA;  Q 201.10 332.83 203.54 342.14&#xA;  Q 205.16 348.33 208.70 358.49&#xA;  Q 211.79 367.36 206.47 374.40&#xA;  Q 203.54 378.27 199.59 380.08&#xA;  C 195.12 382.13 189.12 383.99 184.30 386.58&#xA;  Q 140.14 410.33 129.31 459.93&#xA;  C 128.33 464.44 128.20 468.38 127.54 472.41&#xA;  Q 126.80 476.93 126.71 481.81&#xA;  Q 126.29 502.87 132.97 523.75&#xA;  C 145.44 562.76 177.94 591.18 218.89 596.68&#xA;  Q 221.99 597.09 224.01 598.42&#xA;  Q 192.49 595.93 168.17 576.83&#xA;  C 132.77 549.02 119.13 502.47 128.06 459.03&#xA;  C 134.46 427.92 154.16 401.49 181.96 386.51&#xA;  C 187.87 383.33 193.70 381.63 199.18 379.23&#xA;  C 205.58 376.42 210.88 367.97 208.25 361.05&#xA;  Q 204.08 350.09 201.96 341.67&#xA;  Q 198.14 326.54 199.08 308.27&#xA;  Q 200.53 279.99 216.59 256.61&#xA;  C 232.91 232.86 257.02 217.28 285.20 211.45&#xA;  C 301.84 208.01 318.80 209.45 335.48 213.35&#xA;  C 342.01 214.88 348.68 212.93 352.31 207.43&#xA;  Q 353.33 205.88 355.06 196.94&#xA;  Q 360.50 168.66 380.11 146.60&#xA;  Q 393.33 131.73 410.11 121.33&#xA;  C 442.36 101.34 479.89 95.35 516.28 107.49&#xA;  C 546.78 117.67 575.87 140.09 588.89 170.11&#xA;  C 592.12 177.56 593.80 184.08 602.75 185.91&#xA;  Z&#xA;  M 479.9681 176.2448&#xA;  A 18.07 17.82 -147.1 0 0 485.4606 201.0220&#xA;  A 18.07 17.82 -147.1 0 0 510.3119 195.8752&#xA;  A 18.07 17.82 -147.1 0 0 504.8194 171.0980&#xA;  A 18.07 17.82 -147.1 0 0 479.9681 176.2448&#xA;  Z"></path>
<ellipse fill="#e15b29" cx="0.00" cy="0.00" transform="translate(495.14,186.06) rotate(-147.1)" rx="18.07" ry="17.82"></ellipse>
<path fill="#f7a936" d="&#xA;  M 521.37 434.68&#xA;  Q 527.00 420.55 529.69 407.74&#xA;  C 535.88 378.22 529.95 349.18 512.14 325.00&#xA;  Q 509.49 321.40 507.22 318.17&#xA;  Q 527.59 308.71 542.18 297.70&#xA;  Q 559.22 284.83 573.66 265.67&#xA;  Q 598.39 232.89 602.93 191.99&#xA;  Q 603.13 190.20 603.13 187.93&#xA;  A 1.31 1.30 22.9 0 0 602.76 187.02&#xA;  Q 602.64 186.89 602.26 186.79&#xA;  A 0.37 0.37 0.0 0 1 602.00 186.38&#xA;  Q 602.07 185.89 602.75 185.91&#xA;  Q 608.48 186.40 613.41 183.40&#xA;  C 661.38 154.22 721.83 170.84 755.82 212.19&#xA;  Q 772.88 232.95 778.67 258.52&#xA;  Q 781.79 272.31 780.86 287.35&#xA;  C 780.57 292.09 779.54 295.71 778.62 300.17&#xA;  C 777.22 306.89 778.67 312.70 784.43 316.72&#xA;  Q 787.18 318.64 793.08 319.62&#xA;  Q 796.13 320.13 802.32 321.73&#xA;  C 838.30 331.00 868.13 356.86 883.40 390.39&#xA;  C 900.23 427.35 899.05 472.70 879.64 508.31&#xA;  Q 869.07 527.72 850.61 543.61&#xA;  Q 836.50 555.77 822.24 561.65&#xA;  Q 815.44 564.46 813.88 566.29&#xA;  C 810.17 570.63 809.61 573.90 809.66 579.90&#xA;  Q 809.77 591.11 809.54 593.24&#xA;  Q 806.75 619.34 791.94 639.23&#xA;  Q 771.82 666.24 740.21 675.93&#xA;  C 702.59 687.47 658.60 677.14 634.58 644.21&#xA;  C 629.63 637.43 619.70 635.11 613.54 641.84&#xA;  C 592.69 664.58 565.88 676.34 535.10 677.71&#xA;  A 0.33 0.33 0.0 0 1 534.75 677.38&#xA;  L 534.75 542.83&#xA;  A 2.54 2.51 -22.0 0 1 535.54 541.00&#xA;  Q 582.09 496.45 616.24 464.24&#xA;  C 618.45 462.16 621.48 459.53 622.56 457.29&#xA;  Q 626.37 449.41 621.91 441.86&#xA;  C 617.12 433.78 606.60 432.52 599.89 438.90&#xA;  Q 561.68 475.21 535.01 500.81&#xA;  A 0.23 0.22 68.6 0 1 534.63 500.64&#xA;  Q 534.75 471.49 534.74 451.01&#xA;  Q 534.74 437.44 521.37 434.68&#xA;  Z&#xA;  M 673.9962 252.7556&#xA;  A 21.15 20.70 -127.7 0 0 670.5517 282.1486&#xA;  A 21.15 20.70 -127.7 0 0 699.8638 286.2244&#xA;  A 21.15 20.70 -127.7 0 0 703.3083 256.8314&#xA;  A 21.15 20.70 -127.7 0 0 673.9962 252.7556&#xA;  Z&#xA;  M 613.68 639.92&#xA;  Q 615.78 637.86 619.51 636.80&#xA;  C 625.11 635.21 631.93 638.75 635.22 642.97&#xA;  Q 642.25 651.98 645.70 654.88&#xA;  C 649.46 658.04 653.03 661.47 657.62 664.39&#xA;  Q 677.13 676.75 700.68 678.80&#xA;  Q 736.26 681.90 766.03 662.31&#xA;  C 788.48 647.55 804.25 623.66 807.91 596.03&#xA;  Q 808.74 589.77 808.56 579.87&#xA;  Q 808.44 573.26 809.71 570.40&#xA;  Q 811.80 565.70 815.90 563.03&#xA;  A 4.65 4.44 16.5 0 1 816.66 562.64&#xA;  Q 829.37 557.50 837.44 552.13&#xA;  Q 847.02 545.74 855.81 537.28&#xA;  Q 864.73 528.70 871.23 519.39&#xA;  Q 887.32 496.38 892.01 468.33&#xA;  Q 893.01 462.35 893.13 460.23&#xA;  C 893.46 454.41 894.68 447.01 894.16 442.02&#xA;  Q 893.80 438.56 893.09 431.28&#xA;  Q 889.92 399.10 871.74 372.27&#xA;  Q 869.38 368.79 865.66 364.34&#xA;  C 862.45 360.52 858.28 355.38 853.51 350.98&#xA;  Q 848.55 346.40 842.07 341.70&#xA;  Q 822.70 327.65 799.73 322.19&#xA;  Q 793.92 320.80 790.78 320.93&#xA;  A 0.69 0.69 0.0 0 0 790.13 321.48&#xA;  Q 789.83 322.98 789.48 323.47&#xA;  C 769.58 351.34 747.03 375.43 721.56 394.02&#xA;  A 1.16 1.16 0.0 0 0 721.36 395.70&#xA;  Q 736.19 413.46 739.55 438.12&#xA;  C 740.76 446.98 740.88 455.00 738.21 463.30&#xA;  Q 731.34 484.70 713.62 499.41&#xA;  Q 699.71 510.97 684.93 517.16&#xA;  Q 658.18 528.37 628.76 526.37&#xA;  A 0.79 0.79 0.0 0 0 627.92 527.19&#xA;  C 628.53 542.02 629.17 550.15 628.58 560.62&#xA;  Q 627.00 588.29 619.25 616.53&#xA;  Q 616.57 626.31 612.49 639.18&#xA;  A 0.72 0.72 0.0 0 0 613.68 639.92&#xA;  Z&#xA;  M 621.0336 356.3422&#xA;  A 17.49 17.15 -102.0 0 0 607.8948 377.0157&#xA;  A 17.49 17.15 -102.0 0 0 628.3064 390.5578&#xA;  A 17.49 17.15 -102.0 0 0 641.4452 369.8843&#xA;  A 17.49 17.15 -102.0 0 0 621.0336 356.3422&#xA;  Z"></path>
<path fill="#e15b29" d="&#xA;  M 507.22 318.17&#xA;  Q 509.49 321.40 512.14 325.00&#xA;  C 529.95 349.18 535.88 378.22 529.69 407.74&#xA;  Q 527.00 420.55 521.37 434.68&#xA;  Q 510.79 434.54 506.83 443.37&#xA;  C 505.50 446.33 505.66 450.56 505.66 454.26&#xA;  Q 505.68 477.23 505.62 500.33&#xA;  L 504.95 499.86&#xA;  A 0.55 0.55 0.0 0 0 504.12 500.13&#xA;  C 503.56 501.72 501.87 502.00 500.62 502.94&#xA;  Q 489.50 511.35 477.84 518.19&#xA;  Q 425.47 466.20 412.30 452.70&#xA;  Q 407.70 447.98 403.82 443.72&#xA;  Q 397.83 437.15 394.46 435.78&#xA;  C 385.43 432.10 376.05 438.95 375.14 448.76&#xA;  Q 374.51 455.54 378.77 460.21&#xA;  Q 381.58 463.29 399.56 481.19&#xA;  Q 434.24 515.72 504.46 584.78&#xA;  A 3.68 3.67 -68.4 0 1 505.56 587.33&#xA;  L 505.66 592.94&#xA;  Q 505.57 594.57 505.05 595.48&#xA;  A 0.25 0.25 0.0 0 1 504.58 595.36&#xA;  L 504.31 587.72&#xA;  A 3.15 2.95 -57.2 0 0 504.13 586.74&#xA;  Q 503.59 585.68 500.07 582.22&#xA;  Q 478.20 560.77 467.22 549.72&#xA;  A 0.93 0.93 0.0 0 0 465.63 550.43&#xA;  Q 467.70 587.17 453.79 620.51&#xA;  Q 448.35 633.57 436.96 653.43&#xA;  Q 436.82 653.68 436.80 653.92&#xA;  A 0.90 0.89 79.7 0 1 436.31 654.63&#xA;  C 430.70 657.37 425.31 663.07 422.19 665.45&#xA;  Q 405.02 678.54 384.21 683.78&#xA;  A 0.30 0.29 -12.5 0 0 383.99 684.12&#xA;  Q 384.09 684.75 385.53 684.65&#xA;  Q 350.22 693.12 316.88 678.82&#xA;  C 291.57 667.95 270.48 645.67 266.42 617.66&#xA;  Q 265.37 610.42 265.00 608.45&#xA;  A 3.93 3.71 27.0 0 0 264.61 607.36&#xA;  Q 260.14 598.98 251.00 598.91&#xA;  Q 230.41 598.73 224.01 598.42&#xA;  Q 221.99 597.09 218.89 596.68&#xA;  C 177.94 591.18 145.44 562.76 132.97 523.75&#xA;  Q 126.29 502.87 126.71 481.81&#xA;  Q 126.80 476.93 127.54 472.41&#xA;  C 128.20 468.38 128.33 464.44 129.31 459.93&#xA;  Q 140.14 410.33 184.30 386.58&#xA;  C 189.12 383.99 195.12 382.13 199.59 380.08&#xA;  Q 203.54 378.27 206.47 374.40&#xA;  Q 211.79 367.36 208.70 358.49&#xA;  Q 205.16 348.33 203.54 342.14&#xA;  Q 201.10 332.83 200.42 319.83&#xA;  C 199.07 294.32 207.10 269.90 223.45 249.81&#xA;  C 243.85 224.72 276.30 209.16 309.30 211.01&#xA;  Q 322.49 211.74 335.08 214.49&#xA;  C 340.00 215.56 343.62 215.24 348.00 213.35&#xA;  A 0.52 0.52 0.0 0 1 348.72 213.80&#xA;  C 349.47 228.79 352.62 245.80 359.12 259.66&#xA;  C 364.72 271.60 373.81 284.48 385.57 290.77&#xA;  A 3.39 3.35 49.9 0 0 388.20 291.01&#xA;  C 404.72 285.72 421.49 282.70 438.45 284.59&#xA;  C 465.30 287.57 488.31 299.15 507.22 318.17&#xA;  Z&#xA;  M 314.2392 306.4697&#xA;  A 21.55 20.93 -82.0 0 0 290.5137 324.8971&#xA;  A 21.55 20.93 -82.0 0 0 308.2408 349.1503&#xA;  A 21.55 20.93 -82.0 0 0 331.9663 330.7229&#xA;  A 21.55 20.93 -82.0 0 0 314.2392 306.4697&#xA;  Z&#xA;  M 216.7142 469.4692&#xA;  A 21.87 21.49 -92.4 0 0 196.1589 492.2199&#xA;  A 21.87 21.49 -92.4 0 0 218.5458 513.1708&#xA;  A 21.87 21.49 -92.4 0 0 239.1011 490.4201&#xA;  A 21.87 21.49 -92.4 0 0 216.7142 469.4692&#xA;  Z&#xA;  M 391.0639 571.3280&#xA;  A 19.53 18.95 -56.8 0 0 364.5133 577.2937&#xA;  A 19.53 18.95 -56.8 0 0 369.6761 604.0120&#xA;  A 19.53 18.95 -56.8 0 0 396.2267 598.0463&#xA;  A 19.53 18.95 -56.8 0 0 391.0639 571.3280&#xA;  Z"></path>
<ellipse fill="#ef9227" cx="0.00" cy="0.00" transform="translate(686.93,269.49) rotate(-127.7)" rx="21.15" ry="20.70"></ellipse>
<ellipse fill="#e8752b" cx="0.00" cy="0.00" transform="translate(311.24,327.81) rotate(-82.0)" rx="21.55" ry="20.93"></ellipse>
<path fill="#ef9227" d="&#xA;  M 613.68 639.92&#xA;  A 0.72 0.72 0.0 0 1 612.49 639.18&#xA;  Q 616.57 626.31 619.25 616.53&#xA;  Q 627.00 588.29 628.58 560.62&#xA;  C 629.17 550.15 628.53 542.02 627.92 527.19&#xA;  A 0.79 0.79 0.0 0 1 628.76 526.37&#xA;  Q 658.18 528.37 684.93 517.16&#xA;  Q 699.71 510.97 713.62 499.41&#xA;  Q 731.34 484.70 738.21 463.30&#xA;  C 740.88 455.00 740.76 446.98 739.55 438.12&#xA;  Q 736.19 413.46 721.36 395.70&#xA;  A 1.16 1.16 0.0 0 1 721.56 394.02&#xA;  C 747.03 375.43 769.58 351.34 789.48 323.47&#xA;  Q 789.83 322.98 790.13 321.48&#xA;  A 0.69 0.69 0.0 0 1 790.78 320.93&#xA;  Q 793.92 320.80 799.73 322.19&#xA;  Q 822.70 327.65 842.07 341.70&#xA;  Q 848.55 346.40 853.51 350.98&#xA;  C 858.28 355.38 862.45 360.52 865.66 364.34&#xA;  Q 869.38 368.79 871.74 372.27&#xA;  Q 889.92 399.10 893.09 431.28&#xA;  Q 893.80 438.56 894.16 442.02&#xA;  C 894.68 447.01 893.46 454.41 893.13 460.23&#xA;  Q 893.01 462.35 892.01 468.33&#xA;  Q 887.32 496.38 871.23 519.39&#xA;  Q 864.73 528.70 855.81 537.28&#xA;  Q 847.02 545.74 837.44 552.13&#xA;  Q 829.37 557.50 816.66 562.64&#xA;  A 4.65 4.44 16.5 0 0 815.90 563.03&#xA;  Q 811.80 565.70 809.71 570.40&#xA;  Q 808.44 573.26 808.56 579.87&#xA;  Q 808.74 589.77 807.91 596.03&#xA;  C 804.25 623.66 788.48 647.55 766.03 662.31&#xA;  Q 736.26 681.90 700.68 678.80&#xA;  Q 677.13 676.75 657.62 664.39&#xA;  C 653.03 661.47 649.46 658.04 645.70 654.88&#xA;  Q 642.25 651.98 635.22 642.97&#xA;  C 631.93 638.75 625.11 635.21 619.51 636.80&#xA;  Q 615.78 637.86 613.68 639.92&#xA;  Z&#xA;  M 818.2687 435.9818&#xA;  A 19.51 18.76 -69.7 0 0 793.9052 447.7715&#xA;  A 19.51 18.76 -69.7 0 0 804.7313 472.5782&#xA;  A 19.51 18.76 -69.7 0 0 829.0948 460.7885&#xA;  A 19.51 18.76 -69.7 0 0 818.2687 435.9818&#xA;  Z&#xA;  M 732.8018 587.2329&#xA;  A 19.41 18.90 -55.4 0 0 706.2227 592.4778&#xA;  A 19.41 18.90 -55.4 0 0 710.7582 619.1871&#xA;  A 19.41 18.90 -55.4 0 0 737.3373 613.9422&#xA;  A 19.41 18.90 -55.4 0 0 732.8018 587.2329&#xA;  Z"></path>
<path fill="#4c2e1d" d="&#xA;  M 621.0336 356.3422&#xA;  A 17.49 17.15 -102.0 0 1 641.4452 369.8843&#xA;  A 17.49 17.15 -102.0 0 1 628.3064 390.5578&#xA;  A 17.49 17.15 -102.0 0 1 607.8948 377.0157&#xA;  A 17.49 17.15 -102.0 0 1 621.0336 356.3422&#xA;  Z&#xA;  M 622.8305 357.0996&#xA;  A 16.49 16.12 -96.3 0 0 608.6173 375.2589&#xA;  A 16.49 16.12 -96.3 0 0 626.4495 389.8804&#xA;  A 16.49 16.12 -96.3 0 0 640.6627 371.7211&#xA;  A 16.49 16.12 -96.3 0 0 622.8305 357.0996&#xA;  Z"></path>
<ellipse fill="#8d5f42" cx="0.00" cy="0.00" transform="translate(624.64,373.49) rotate(-96.3)" rx="16.49" ry="16.12"></ellipse>
<ellipse fill="#f7a936" cx="0.00" cy="0.00" transform="translate(811.50,454.28) rotate(-69.7)" rx="19.51" ry="18.76"></ellipse>
<ellipse fill="#e8752b" cx="0.00" cy="0.00" transform="translate(217.63,491.32) rotate(-92.4)" rx="21.87" ry="21.49"></ellipse>
<path fill="#e8752b" d="&#xA;  M 505.62 500.33&#xA;  L 505.67 545.02&#xA;  Q 505.45 545.09 504.97 545.05&#xA;  L 477.84 518.19&#xA;  Q 489.50 511.35 500.62 502.94&#xA;  C 501.87 502.00 503.56 501.72 504.12 500.13&#xA;  A 0.55 0.55 0.0 0 1 504.95 499.86&#xA;  L 505.62 500.33&#xA;  Z"></path>
<path fill="#e8752b" d="&#xA;  M 505.66 592.94&#xA;  L 505.64 677.36&#xA;  A 0.30 0.30 0.0 0 1 505.32 677.66&#xA;  Q 483.83 676.01 463.88 667.25&#xA;  Q 460.16 665.62 455.82 662.98&#xA;  C 449.30 659.01 443.61 654.53 435.96 656.38&#xA;  Q 434.33 656.78 431.29 659.29&#xA;  Q 425.71 663.91 422.03 666.76&#xA;  Q 405.68 679.43 385.53 684.65&#xA;  Q 384.09 684.75 383.99 684.12&#xA;  A 0.30 0.29 -12.5 0 1 384.21 683.78&#xA;  Q 405.02 678.54 422.19 665.45&#xA;  C 425.31 663.07 430.70 657.37 436.31 654.63&#xA;  A 0.90 0.89 79.7 0 0 436.80 653.92&#xA;  Q 436.82 653.68 436.96 653.43&#xA;  Q 448.35 633.57 453.79 620.51&#xA;  Q 467.70 587.17 465.63 550.43&#xA;  A 0.93 0.93 0.0 0 1 467.22 549.72&#xA;  Q 478.20 560.77 500.07 582.22&#xA;  Q 503.59 585.68 504.13 586.74&#xA;  A 3.15 2.95 -57.2 0 1 504.31 587.72&#xA;  L 504.58 595.36&#xA;  A 0.25 0.25 0.0 0 0 505.05 595.48&#xA;  Q 505.57 594.57 505.66 592.94&#xA;  Z"></path>
<ellipse fill="#e8752b" cx="0.00" cy="0.00" transform="translate(380.37,587.67) rotate(-56.8)" rx="19.53" ry="18.95"></ellipse>
<ellipse fill="#f7a936" cx="0.00" cy="0.00" transform="translate(721.78,603.21) rotate(-55.4)" rx="19.41" ry="18.90"></ellipse>
<path fill="#030201" d="&#xA;  M 462.46 698.60&#xA;  A 1.35 1.35 0.0 0 1 464.14 697.62&#xA;  Q 472.95 700.11 482.61 701.73&#xA;  Q 493.07 703.48 501.36 704.44&#xA;  Q 529.51 707.72 557.60 702.88&#xA;  A 2.01 2.00 -9.2 0 1 559.92 704.54&#xA;  C 561.06 711.83 560.81 719.37 561.16 726.60&#xA;  Q 565.45 815.00 566.08 825.93&#xA;  C 567.46 849.60 568.12 868.77 568.85 877.50&#xA;  Q 569.01 879.39 568.70 880.98&#xA;  A 2.11 2.11 0.0 0 1 566.63 882.69&#xA;  L 455.45 882.69&#xA;  A 0.90 0.89 84.0 0 1 454.58 881.98&#xA;  Q 453.97 879.14 454.21 874.48&#xA;  Q 454.56 867.97 455.49 846.76&#xA;  Q 456.38 826.55 457.03 806.24&#xA;  Q 457.20 800.91 457.76 794.27&#xA;  C 458.17 789.34 457.98 784.25 458.30 778.24&#xA;  Q 460.46 738.02 461.38 708.22&#xA;  Q 461.56 702.30 462.46 698.60&#xA;  Z&#xA;  M 463.08 698.60&#xA;  L 454.96 881.11&#xA;  A 0.29 0.29 0.0 0 0 455.25 881.41&#xA;  L 567.49 881.41&#xA;  A 0.23 0.23 0.0 0 0 567.72 881.17&#xA;  L 558.92 704.09&#xA;  A 0.26 0.26 0.0 0 0 558.62 703.84&#xA;  Q 532.77 708.54 506.51 706.14&#xA;  Q 484.01 704.09 463.29 698.44&#xA;  A 0.17 0.17 0.0 0 0 463.08 698.60&#xA;  Z"></path>
<path fill="#8d5f42" d="&#xA;  M 463.08 698.60&#xA;  A 0.17 0.17 0.0 0 1 463.29 698.44&#xA;  Q 484.01 704.09 506.51 706.14&#xA;  Q 532.77 708.54 558.62 703.84&#xA;  A 0.26 0.26 0.0 0 1 558.92 704.09&#xA;  L 567.72 881.17&#xA;  A 0.23 0.23 0.0 0 1 567.49 881.41&#xA;  L 455.25 881.41&#xA;  A 0.29 0.29 0.0 0 1 454.96 881.11&#xA;  L 463.08 698.60&#xA;  Z"></path>
</svg>